<svg width="260" height="56" viewBox="0 0 260 56" fill="none" xmlns="http://www.w3.org/2000/svg">
<path d="M53.5562 1.72762V53.5562H1.72762V1.72762H53.5562ZM55.2838 0H0V55.2838H55.2838V0Z" fill="#111111"/>
<path d="M48.3734 6.9104H31.0972V12.9571H48.3734V6.9104Z" fill="#2D40EA"/>
<path d="M31.0972 19.0039H48.3734V24.1868H37.1438V31.0972H45.7819V35.4163H37.1438V47.5096H31.0972V19.0039Z" fill="#111111"/>
<path d="M25.0506 41.4629H7.77441V47.5096H25.0506V41.4629Z" fill="#8600A1"/>
<path d="M13.8211 12.9571V29.3694H25.0506V35.4161H7.77441V6.9104H25.0506V12.9571H13.8211Z" fill="#111111"/>
<path d="M84.358 41.938C90.5256 41.938 94.9518 38.7817 95.7136 32.5415H90.9972C90.4893 36.2058 87.9497 38.0198 84.358 38.0198C79.569 38.0198 76.7755 34.5732 76.7755 28.7321V28.4419C76.7755 22.6371 79.7504 19.0816 84.3217 19.0816C88.0586 19.0816 89.9814 20.8594 90.5256 24.306H95.4234C94.8429 18.2109 90.2354 15.236 84.2854 15.236C77.0657 15.236 71.6963 20.678 71.6963 28.4782V28.7684C71.6963 36.75 76.2313 41.938 84.358 41.938Z" fill="#111111"/>
<path d="M99.6395 41.5752H104.029V13.821H99.6395V41.5752Z" fill="#111111"/>
<path d="M111.629 19.4807C113.081 19.4807 114.242 18.3923 114.242 16.9774C114.242 15.5262 113.081 14.4378 111.629 14.4378C110.178 14.4378 109.017 15.5262 109.017 16.9774C109.017 18.3923 110.178 19.4807 111.629 19.4807ZM109.489 41.5752H113.879V22.6008H109.489V41.5752Z" fill="#111111"/>
<path d="M127.574 41.938C132.435 41.938 135.664 39.7612 136.281 35.7704H132.036C131.71 37.6207 130.331 38.6728 127.683 38.6728C124.418 38.6728 122.604 36.6411 122.458 33.0494H136.354V31.7796C136.354 24.9953 132.109 22.2017 127.393 22.2017C121.987 22.2017 117.96 26.12 117.96 31.9973V32.2876C117.96 38.2737 121.987 41.938 127.574 41.938ZM122.531 30.1108C122.966 27.1721 124.744 25.3944 127.393 25.3944C130.114 25.3944 131.782 26.8456 132 30.1108H122.531Z" fill="#111111"/>
<path d="M140.275 41.5752H144.665V30.401C144.665 27.3898 146.66 25.866 149.127 25.866C151.739 25.866 152.9 27.1721 152.9 30.0382V41.5752H157.29V29.6391C157.29 24.4148 154.605 22.2017 150.796 22.2017C147.676 22.2017 145.572 23.7618 144.665 25.612V22.6008H140.275V41.5752Z" fill="#111111"/>
<path d="M168.805 41.9017C170.148 41.9017 171.091 41.6841 171.78 41.4301V37.9472C171.164 38.2012 170.51 38.31 169.64 38.31C168.261 38.31 167.463 37.5481 167.463 35.8793V25.9023H171.635V22.6008H167.463V18.4286H163.073V22.6008H160.533V25.9023H163.073V36.2783C163.073 39.8701 165.032 41.9017 168.805 41.9017Z" fill="#111111"/>
<path d="M175.159 33.2671H183.867V29.6391H175.159V33.2671Z" fill="#111111"/>
<path d="M188.893 41.5752H193.718V30.9452H202.57V27.2084H193.718V19.4807H204.965V15.635H188.893V41.5752Z" fill="#111111"/>
<path d="M210.691 19.4807C212.142 19.4807 213.303 18.3923 213.303 16.9774C213.303 15.5262 212.142 14.4378 210.691 14.4378C209.24 14.4378 208.079 15.5262 208.079 16.9774C208.079 18.3923 209.24 19.4807 210.691 19.4807ZM208.55 41.5752H212.94V22.6008H208.55V41.5752Z" fill="#111111"/>
<path d="M218.291 41.5752H222.681V31.7071C222.681 27.68 225.003 26.4465 228.848 26.4102V22.3106C225.656 22.3468 223.878 23.7618 222.681 26.1562V22.6008H218.291V41.5752Z" fill="#111111"/>
<path d="M239.134 41.938C243.996 41.938 246.717 39.7249 246.717 35.8793C246.717 31.8522 244.068 30.7638 239.606 30.0745C236.594 29.5666 235.687 29.0224 235.687 27.6437C235.687 26.3014 236.812 25.3944 238.699 25.3944C240.73 25.3944 241.71 26.1925 242.073 27.934H246.136C245.664 23.6529 242.581 22.2017 238.699 22.2017C235.143 22.2017 231.588 24.0883 231.588 27.8977C231.588 31.4531 233.438 32.868 238.445 33.6662C241.238 34.1378 242.508 34.7183 242.508 36.2783C242.508 37.8747 241.456 38.7091 239.098 38.7091C236.522 38.7091 235.542 37.5844 235.325 35.6616H231.189C231.37 39.6887 234.236 41.938 239.134 41.938Z" fill="#111111"/>
<path d="M257.025 41.9017C258.368 41.9017 259.311 41.6841 260 41.4301V37.9472C259.383 38.2012 258.73 38.31 257.86 38.31C256.481 38.31 255.683 37.5481 255.683 35.8793V25.9023H259.855V22.6008H255.683V18.4286H251.293V22.6008H248.753V25.9023H251.293V36.2783C251.293 39.8701 253.252 41.9017 257.025 41.9017Z" fill="#111111"/>
</svg>
