<svg width="32" height="25" viewBox="0 0 32 25" fill="none" xmlns="http://www.w3.org/2000/svg">
<path d="M23.7642 0.0806036L1.73454 0C1.29654 0.000828078 0.876521 0.174266 0.565601 0.482694C0.254681 0.791121 0.0779292 1.20966 0.0736857 1.64754L-0.000488248 22.0983C-0.00533121 22.3257 0.0619757 22.5488 0.191782 22.7356C0.321588 22.9224 0.507227 23.0633 0.722081 23.1381C0.936936 23.213 1.16997 23.2178 1.38777 23.1521C1.60558 23.0863 1.79696 22.9533 1.93448 22.7721L6.33977 17.2137L23.6997 17.2782C24.1377 17.2773 24.5577 17.1039 24.8686 16.7955C25.1796 16.4871 25.3563 16.0685 25.3606 15.6306L25.4089 1.73781C25.4089 1.30052 25.2361 0.880944 24.928 0.570525C24.6199 0.260106 24.2016 0.0840066 23.7642 0.0806036Z" fill="#1F64FF"/>
<path d="M30.1178 6.71265H26.5704L26.5414 16.2916C26.5388 16.8996 26.2954 17.4818 25.8645 17.9108C25.4335 18.3399 24.8501 18.5807 24.242 18.5807L11.7517 18.5356V18.6774C11.7517 19.0167 11.8854 19.3423 12.1238 19.5837C12.3623 19.8251 12.6862 19.9629 13.0256 19.9671L26.4446 20.009L29.8469 24.3358C29.9536 24.4717 30.0998 24.571 30.2655 24.6201C30.4311 24.6691 30.6079 24.6653 30.7714 24.6093C30.9348 24.5533 31.0767 24.4479 31.1775 24.3076C31.2782 24.1673 31.3328 23.9991 31.3336 23.8264L31.3917 7.99908C31.3909 7.66037 31.2568 7.33559 31.0184 7.09488C30.7801 6.85418 30.4566 6.71688 30.1178 6.71265Z" fill="#1F64FF"/>
<path d="M15.6184 9.81752L17.676 8.13452C17.7374 8.08179 17.7819 8.01202 17.8037 7.93404C17.8255 7.85606 17.8237 7.77337 17.7985 7.69642C17.7733 7.61946 17.7258 7.55171 17.6621 7.50171C17.5984 7.45172 17.5213 7.42173 17.4405 7.41554L14.7961 7.24466C14.7176 7.24004 14.6422 7.21297 14.5787 7.16666C14.5152 7.12036 14.4664 7.05678 14.4381 6.9835L13.4706 4.49769C13.4407 4.41977 13.3879 4.35274 13.3191 4.30547C13.2503 4.25819 13.1687 4.23288 13.0852 4.23288C13.0018 4.23288 12.9202 4.25819 12.8514 4.30547C12.7826 4.35274 12.7298 4.41977 12.6999 4.49769L11.7324 6.96738C11.7023 7.03986 11.6526 7.10246 11.5887 7.14806C11.5249 7.19366 11.4495 7.22042 11.3712 7.22531L8.70737 7.36073C8.62441 7.36473 8.54458 7.39365 8.47832 7.44373C8.41207 7.4938 8.36246 7.56269 8.33598 7.6414C8.30951 7.7201 8.3074 7.80496 8.32993 7.88489C8.35246 7.96481 8.39858 8.03608 8.46227 8.08938L10.5101 9.77883C10.5685 9.83056 10.6116 9.89722 10.6349 9.97164C10.6582 10.0461 10.6608 10.1254 10.6423 10.2012L9.96188 12.7805C9.94314 12.8609 9.94893 12.945 9.97849 13.022C10.0081 13.0991 10.0601 13.1655 10.1278 13.2127C10.1955 13.2599 10.2758 13.2857 10.3583 13.2869C10.4408 13.288 10.5218 13.2643 10.5907 13.219L12.8289 11.7971C12.8935 11.7532 12.97 11.7297 13.0482 11.7297C13.1264 11.7297 13.2028 11.7532 13.2675 11.7971L15.5056 13.2383C15.575 13.2813 15.6555 13.3027 15.7371 13.2999C15.8186 13.2971 15.8975 13.2701 15.9637 13.2225C16.03 13.1749 16.0807 13.1088 16.1093 13.0324C16.138 12.956 16.1434 12.8728 16.1248 12.7934L15.4798 10.2141C15.4656 10.1416 15.471 10.0667 15.4953 9.99702C15.5197 9.92732 15.5622 9.86537 15.6184 9.81752Z" fill="white"/>
</svg>
